<?xml version="1.0" encoding="UTF-8"?>
<svg width="75px" height="75px" viewBox="0 0 75 75" version="1.1" xmlns="http://www.w3.org/2000/svg" xmlns:xlink="http://www.w3.org/1999/xlink">
    <!-- Generator: Sketch 54.1 (76490) - https://sketchapp.com -->
    <title>glpyh/global/location/L03-PO</title>
    <desc>Created with Sketch.</desc>
    <defs>
        <linearGradient x1="-2.82784888%" y1="50.1077632%" x2="100%" y2="99.7202539%" id="linearGradient-1">
            <stop stop-color="#DE0063" offset="0%"></stop>
            <stop stop-color="#DE0063" offset="0%"></stop>
            <stop stop-color="#FF9600" offset="100%"></stop>
        </linearGradient>
    </defs>
    <g id="Page-1" stroke="none" stroke-width="1" fill="none" fill-rule="evenodd" stroke-linecap="round" stroke-linejoin="round">
        <g id="Glyphs" transform="translate(-130.000000, -21.000000)" stroke="url(#linearGradient-1)" stroke-width="1.4">
            <g id="glpyh/global/location/L03-PO" transform="translate(130.000000, 21.000000)">
                <path d="M43.8372093,1.79883721 C45.5433183,1.11291457 47.3646604,0.758907243 49.2034884,0.755813953 C53.2713989,0.803540446 57.1527566,2.46962712 59.9894144,5.3857113 C62.8260721,8.30179547 64.3843666,12.2276712 64.3197674,16.2953488 C64.3197674,24.8813953 49.2034884,42.4162791 49.2034884,42.4162791 M54.5546512,1.79883721 C50.901824,0.343071846 46.8176234,0.413864656 43.2174419,1.99534884 M37.0348837,7.01395349 C35.0799547,9.71477161 34.0224618,12.961275 34.0116279,16.2953488 C34.0116279,24.8813953 49.127907,42.4162791 49.127907,42.4162791 M52.8778902,8.50021953 C50.7411059,7.22120745 48.0740104,7.22120745 45.9372261,8.50021953 C43.8004418,9.77923162 42.5403841,12.1299024 42.6581395,14.6174419 C42.5403841,17.1049813 43.8004418,19.4556521 45.9372261,20.7346642 C48.0740104,22.0136763 50.7411059,22.0136763 52.8778902,20.7346642 C55.0146745,19.4556521 56.2747321,17.1049813 56.1569767,14.6174419 C56.2747321,12.1299024 55.0146745,9.77923162 52.8778902,8.50021953 Z M29.7790698,6.04651163 C23.8837209,6.04651163 19.0918605,19.0313953 19.0918605,35.0546512 C19.0918605,51.077907 23.8837209,64.077907 29.7790698,64.077907 M29.7790698,64.077907 C35.6744186,64.077907 40.4511628,51.0930233 40.4511628,35.0546512 C40.4511628,33.6186047 40.4511628,32.1976744 40.3453488,30.822093 M1.04302326,32.227907 C2.79651163,35.9313953 15.0255814,38.8186047 29.8546512,38.8186047 C35.0408985,38.8580433 40.2220374,38.4839903 45.3488372,37.7 M6.53023256,17.7465116 C11.8209302,19.5755814 20.2709302,20.7697674 29.7790698,20.7697674 C31.4267442,20.7697674 33.0593023,20.7697674 34.6465116,20.6639535 M5.07906977,49.8837209 C10.1883721,52.0151163 19.3337209,53.4360465 29.7790698,53.4360465 C40.2244186,53.4360465 49.5662791,51.9244186 54.6453488,49.8081395 M29.7790698,6.04651163 C14.3420124,6.07278245 1.62671721,18.1784725 0.842664754,33.5956283 C0.058612302,49.0127841 11.4801917,62.3459752 26.8349397,63.9381893 C42.1896877,65.5304033 56.1040142,54.8244246 58.5,39.5744186 M37.0348837,7.01395349 C34.6661154,6.39000899 32.2285652,6.0650023 29.7790698,6.04651163" id="Shape"></path>
            </g>
        </g>
    </g>
</svg>